<?xml version="1.0" standalone="no"?>
<!DOCTYPE svg PUBLIC "-//W3C//DTD SVG 20010904//EN"
 "http://www.w3.org/TR/2001/REC-SVG-20010904/DTD/svg10.dtd">
<svg version="1.0" xmlns="http://www.w3.org/2000/svg"
 width="228.000000pt" height="221.000000pt" viewBox="0 0 228.000000 221.000000"
 preserveAspectRatio="xMidYMid meet">

<g transform="translate(0.000000,221.000000) scale(0.100000,-0.100000)"
fill="#000000" stroke="none">
<path d="M1013 2120 c-32 -38 -61 -70 -65 -70 -4 0 -32 24 -64 53 -62 58 -83
72 -91 63 -10 -10 12 -295 24 -307 8 -8 20 -8 40 -2 27 9 28 11 25 72 -4 59
-3 62 15 52 11 -5 25 -17 33 -25 19 -24 36 -19 60 14 30 42 40 37 40 -19 0
-70 6 -81 48 -81 l35 0 -7 128 c-8 144 -14 192 -27 192 -5 0 -35 -31 -66 -70z"/>
<path d="M1300 2180 c-7 -4 -30 -220 -30 -286 0 -23 3 -25 38 -22 34 3 37 6
40 36 3 30 5 32 43 32 22 0 55 6 74 14 78 33 88 156 16 203 -25 16 -163 34
-181 23z m143 -87 c4 -2 7 -17 7 -33 0 -35 -23 -50 -63 -43 -22 4 -27 11 -27
33 0 50 9 62 44 54 17 -3 34 -8 39 -11z"/>
<path d="M489 2111 c-36 -10 -71 -21 -76 -24 -7 -4 3 -59 25 -152 42 -167 32
-159 157 -126 67 17 70 19 68 46 -1 15 -5 30 -8 33 -3 3 -28 0 -56 -6 -58 -14
-69 -10 -69 22 0 19 7 25 43 32 38 8 42 12 45 43 l3 33 -60 -7 c-57 -7 -61 -6
-61 14 0 15 10 23 38 30 20 6 42 11 49 11 19 0 24 16 13 44 -11 30 -21 31
-111 7z"/>
<path d="M1697 2063 c-43 -195 -49 -225 -41 -232 5 -5 36 -14 69 -21 33 -6 70
-14 82 -17 18 -4 25 1 33 22 14 36 9 41 -50 55 -27 7 -50 15 -50 20 0 4 11 56
24 116 14 59 23 111 20 116 -3 4 -20 8 -39 8 -33 0 -34 -1 -48 -67z"/>
<path d="M118 1979 c-54 -27 -98 -51 -98 -54 0 -2 5 -16 12 -30 9 -20 17 -25
32 -20 53 17 58 13 99 -70 62 -128 62 -128 97 -110 17 9 30 20 30 25 0 6 -20
51 -45 100 -25 49 -45 97 -45 105 0 8 11 21 25 27 28 13 32 39 9 62 -8 9 -16
16 -17 15 -1 0 -46 -22 -99 -50z"/>
<path d="M2061 1988 c-10 -24 -37 -85 -60 -136 -22 -51 -41 -96 -41 -100 0
-14 171 -85 179 -76 5 5 12 19 15 31 6 19 0 26 -43 48 -55 27 -58 32 -38 59
13 18 15 17 55 -3 23 -11 43 -21 45 -21 10 0 30 64 21 67 -44 18 -79 41 -79
53 0 18 37 18 82 -1 35 -14 46 -9 57 27 6 18 -4 25 -75 57 -44 21 -85 37 -90
37 -5 0 -18 -19 -28 -42z"/>
<path d="M425 1600 c-44 -4 -106 -13 -138 -20 l-58 -13 6 -41 c10 -58 74 -200
124 -275 24 -34 71 -91 105 -126 l62 -64 -4 -176 -5 -176 59 -54 c33 -30 67
-54 77 -55 10 0 16 -4 13 -9 -3 -5 48 -57 113 -115 101 -90 125 -117 160 -182
46 -84 109 -170 169 -227 47 -46 56 -44 127 35 62 70 101 126 151 222 37 70
59 95 214 240 l173 161 -2 158 -2 158 74 73 c117 115 220 290 242 407 l7 36
-69 17 c-161 41 -389 29 -560 -30 l-74 -25 -67 17 c-87 24 -266 24 -337 1 -49
-16 -50 -16 -139 14 -49 17 -99 29 -112 26 -13 -2 -24 -1 -24 4 0 7 -48 14
-155 22 -27 2 -86 0 -130 -3z m273 -136 c39 -9 72 -17 72 -19 0 -2 -28 -31
-63 -64 -35 -33 -79 -87 -98 -120 l-36 -60 -25 27 c-62 68 -148 208 -148 241
0 22 184 19 298 -5z m1232 -1 c16 -14 -162 -273 -188 -273 -4 0 -23 28 -42 62
-19 33 -63 89 -98 124 l-63 63 43 11 c71 20 168 28 258 23 47 -3 87 -8 90 -10z
m-696 -22 c3 -5 -12 -20 -34 -35 l-40 -26 -40 26 c-22 15 -40 31 -40 35 0 12
147 12 154 0z m-256 -91 c91 -61 91 -58 34 -137 -27 -37 -66 -97 -87 -133 -21
-36 -39 -66 -40 -68 -1 -1 -25 6 -53 17 -74 29 -152 80 -152 99 0 28 55 115
103 164 40 41 112 96 128 97 4 1 34 -17 67 -39z m542 -51 c52 -51 126 -172
115 -188 -5 -9 -162 -87 -191 -95 -17 -5 -24 2 -45 46 -13 29 -50 92 -81 140
l-57 88 32 24 c18 13 50 35 72 49 38 24 41 24 69 8 16 -9 55 -41 86 -72z
m-270 -39 c0 -5 -4 -10 -10 -10 -5 0 -10 5 -10 10 0 6 5 10 10 10 6 0 10 -4
10 -10z m430 1 c0 -6 -4 -13 -10 -16 -5 -3 -10 1 -10 9 0 9 5 16 10 16 6 0 10
-4 10 -9z m-440 -178 c64 -111 64 -109 -20 -117 -70 -7 -200 1 -200 12 0 10
53 97 98 161 l45 64 18 -24 c10 -13 37 -56 59 -96z m-500 -150 c148 -72 228
-88 425 -87 149 1 182 4 268 27 54 14 127 41 162 60 l65 35 0 -103 0 -103 -87
-81 -88 -81 -3 110 c-1 61 -6 110 -9 110 -4 0 -33 -17 -65 -37 l-58 -38 0 -59
c0 -71 -34 -220 -59 -262 -10 -16 -45 -52 -77 -81 l-60 -51 -61 56 c-53 49
-64 66 -82 122 -23 74 -41 169 -41 215 0 26 -7 35 -57 65 -32 19 -62 37 -66
39 -5 2 -7 -47 -5 -108 1 -61 2 -111 0 -111 -2 0 -48 41 -103 92 l-99 91 0
115 c0 62 3 112 8 110 4 -2 45 -23 92 -45z"/>
</g>
</svg>
