<?xml version="1.0" encoding="utf-8"?><!-- Generator: Adobe Illustrator 22.1.0, SVG Export Plug-In . SVG Version: 6.00 Build 0)  --><svg xmlns="http://www.w3.org/2000/svg" xmlns:xlink="http://www.w3.org/1999/xlink" version="1.1" id="Capa_1" x="0px" y="0px" width="332px" height="83.5px" viewBox="0 0 332 83.5" style="enable-background:new 0 0 332 83.5;" xml:space="preserve">
<style type="text/css">
	.st0{fill:#ffffff;}
</style>
<path class="st0" d="M88.8,2.9C82.9,2,77,2.1,71.1,3.2C67.3,3.9,63.6,5.1,60,6.6c-3.7-1.4-7.7-2.2-11.9-2.2c-4,0-7.8,0.7-11.3,2  C33.5,4.9,30,3.8,26.3,3.1C20.8,2,15.2,1.8,9.7,2.4l0,0l0,0c-0.3,0-0.7,0.1-1,0.1C6.1,2.9,3.5,3.5,1,4.2v0.1c0.2,1,0.5,2,0.7,2.9  c0.1,0,0.1,0,0.1,0c0,0.1,0,0.1,0,0.2c0,0,0,0-0.1,0L1.6,7.3C2,8.7,2.4,10,3,11.3c2.1,5.2,5.1,10.1,9.1,14.3  c1.4,1.5,2.8,2.8,4.4,4.1c-0.2,1.5-0.4,3.1-0.4,4.6v13.6l19.4,17.2c1.8,4.3,4.2,8.2,7.2,11.8c1.6,1.9,3.5,3.7,5.4,5.4  c2-1.6,3.9-3.4,5.5-5.3c3.5-4,6.3-8.5,8.2-13.5l18.1-16.7v-1l0,0c-0.2-0.1-0.3-0.3-0.5-0.4v-0.1c0.1,0,0.3-0.1,0.4-0.1V34.4  c0-1.3-0.1-2.6-0.3-3.9c1.8-1.4,3.5-2.9,5.1-4.6c4-4.2,7.2-8.9,9.3-14.2c1-2.3,1.7-4.7,2.2-7.1c0,0,0,0-0.1,0  C93.9,3.9,91.4,3.3,88.8,2.9z M6.7,12L6.7,12c0-0.1,0.1-0.1,0.1-0.1s0,0,0,0.1C6.8,12,6.7,12,6.7,12z M7.1,7.4L7,7.3l0,0  C7.1,7.3,7.1,7.4,7.1,7.4L7.1,7.4z M80,38.7c0.1,0.1,0.1,0.2,0,0.2h-0.1C79.9,38.9,79.9,38.8,80,38.7z M83.4,6.3c0,0.1,0,0.2,0,0.3  C83.2,6.5,83.2,6.5,83.4,6.3z M81.2,5.3c-0.1,0.1-0.2,0-0.3-0.1C81.1,5.2,81.2,5.2,81.2,5.3z M80.3,8.2c-0.1,0.3-0.2,0.3-0.4,0  C80,8.3,80.1,8.2,80.3,8.2z M76.3,5.6c0,0.1,0,0.1,0,0.2C76.2,5.8,76.2,5.7,76.3,5.6z M75.4,4c0.1,0.1,0.1,0.2,0,0.2h-0.1  C75.3,4.1,75.4,4.1,75.4,4z M74.3,3.7C74.3,3.8,74.3,3.8,74.3,3.7c0,0.1,0,0.2-0.1,0.2c0,0,0,0-0.1-0.1C74.2,3.8,74.2,3.8,74.3,3.7z   M72.7,8.8L72.7,8.8c0,0.1,0,0.2-0.1,0.4C72.5,8.9,72.5,8.9,72.7,8.8z M70.2,7.6C70.1,7.5,70,7.5,70,7.4C70.1,7.4,70.2,7.5,70.2,7.6  z M65.9,8.6c0.1,0,0.2,0.1,0.2,0.2c0,0,0,0-0.1,0.1C66,8.8,65.9,8.7,65.9,8.6L65.9,8.6z M63.5,9.8c0.2,0.2,0.2,0.2,0,0.4  C63.4,10,63.4,10,63.5,9.8z M62.8,9.3c-0.2,0.1-0.4,0.2-0.6,0.4C62.3,9.5,62.4,9.4,62.8,9.3z M61.4,9.4c0.2,0.1,0.2,0.3,0.2,0.5  C61.3,9.7,61.3,9.6,61.4,9.4z M58.7,13.4c0,0.1,0.1,0.2,0.1,0.2l0,0c0,0-0.1,0-0.1-0.1C58.7,13.5,58.7,13.5,58.7,13.4z M56.1,8.4  c0,0.1,0.1,0.1,0.1,0.2c0,0.4,0,0.7,0,1.1c0,0.1,0,0.1,0,0.2c0.1,0.1,0,0.3,0.1,0.5s0.1,0.3,0.1,0.5V11c0,0,0,0-0.1,0  c-0.1-0.3-0.2-0.6-0.3-0.9V10c0-0.4,0-0.9,0-1.3C56.1,8.6,56.1,8.5,56.1,8.4z M55.7,6.6c0.1,0.3,0.1,0.3-0.3,0.4  C55.4,6.7,55.4,6.6,55.7,6.6z M54.1,14.7c0,0.1,0,0.1,0.1,0.2h-0.1C54,14.8,54,14.8,54.1,14.7C54,14.7,54,14.7,54.1,14.7z   M54.3,17.6c2.1-1.6,4.4-3.1,6.8-4.3c5.5,3,9.8,7.9,11.7,13.8c-1.3,0.8-2.8,1.6-4.2,2.4l0,0c0,0-0.1,0.1-0.2,0.1l0,0  c-2.2,1.1-4.5,2.1-6.5,2.8c-0.1-0.2-0.2-0.4-0.2-0.6c-0.9-2.3-2-4.5-3.3-6.6c-1.1-1.8-3.4-5.3-4.8-7C53.9,18,54.1,17.8,54.3,17.6z   M69.3,17c0,0.1-0.1,0.2-0.2,0.1V17C69.1,16.9,69.2,16.9,69.3,17z M69.3,14.3C69.2,14.3,69.3,14.2,69.3,14.3c0.1,0,0.1,0,0.2,0.1  c0,0-0.1,0-0.1,0.1C69.3,14.4,69.3,14.3,69.3,14.3z M70.2,29.8L70.2,29.8C70.1,29.8,70.1,29.8,70.2,29.8  C70.1,29.7,70.1,29.7,70.2,29.8C70.1,29.7,70.2,29.7,70.2,29.8z M68.4,32.1c-0.2-0.2-0.2-0.5-0.2-0.7C68.3,31.6,68.4,31.8,68.4,32.1  z M58.2,29.7c0,0.3-0.3,0.2-0.4,0.3c0-0.1-0.1-0.1-0.1-0.2c0-0.1,0.1-0.1,0.1-0.2C57.9,29.6,58,29.7,58.2,29.7z M56.9,24  c0,0.1,0,0.1,0,0.2h-0.1C56.8,24.1,56.8,24,56.9,24C56.8,24,56.9,24,56.9,24z M56.6,26.8c0,0.1,0,0.1-0.1,0.2c0,0-0.1-0.1-0.1-0.2  c0-0.1,0-0.2,0.1-0.2S56.6,26.7,56.6,26.8z M41.9,40.1c-0.3-0.1-0.3-0.1-0.2-0.4C42,39.7,42,39.8,41.9,40.1z M41.8,34.8  C41.8,34.7,41.8,34.7,41.8,34.8C41.9,34.7,41.9,34.8,41.8,34.8c0.1,0,0.1,0.1,0,0.2C41.8,34.8,41.8,34.8,41.8,34.8z M41.2,34  c0.9-1.6,2.9-4.7,3.6-5.9c0.9-1.5,2-2.9,3.1-4.3c0.3-0.3,0.6-0.7,0.9-1c1,1.3,2.9,4.3,3.7,5.6c0.9,1.5,1.7,3.1,2.4,4.7  c0.1,0.3,0.2,0.6,0.4,0.9c-1.8,0.2-5.3,0.7-6.7,0.7c-1.8,0-3.7-0.1-5.5-0.4C42.3,34.2,41.8,34.1,41.2,34z M41.9,21L41.9,21  c0-0.1,0-0.2,0.1-0.2l0,0C41.9,20.9,41.9,21,41.9,21L41.9,21z M43.3,29.4c0,0.1-0.1,0.1-0.3,0.1c-0.1,0-0.2-0.1-0.3-0.1  C42.8,29.3,43,29.3,43.3,29.4z M43.2,23.8C43.3,23.8,43.3,23.7,43.2,23.8C43.3,23.7,43.3,23.8,43.2,23.8  C43.3,23.8,43.3,23.8,43.2,23.8C43.3,23.8,43.3,23.8,43.2,23.8z M44.3,24.6c0.1-0.1,0.1-0.1,0.2,0C44.4,24.7,44.4,24.6,44.3,24.6z   M52.9,20c-0.1,0.1-0.3,0.2-0.4,0.3c-0.1,0.1-0.2,0.1-0.3,0s-0.2-0.2-0.4-0.4c0.1-0.1,0.1-0.2,0.2-0.2c0.1-0.4,0.5-0.4,0.8-0.5h0.1  C53.1,19.4,53.1,19.9,52.9,20z M53,8c0.1,0.1,0.1,0.2,0,0.2c0,0-0.1,0-0.1-0.1C52.9,8.1,53,8,53,8z M44.4,6.7L44.4,6.7L44.4,6.7  C44.4,6.8,44.4,6.7,44.4,6.7C44.3,6.7,44.4,6.7,44.4,6.7z M48.2,10.1c1.6,0,3.2,0.1,4.7,0.4c-1.2,0.8-2.4,1.6-3.5,2.5  c-0.3,0.2-0.6,0.5-0.9,0.7c-1.1-0.9-2.8-2.2-4.5-3.3C45.4,10.2,46.8,10.1,48.2,10.1z M40.1,12.7L40.1,12.7c0,0.1,0,0.1,0,0.2  C40.1,12.8,40,12.8,40.1,12.7C40,12.8,40.1,12.7,40.1,12.7z M39.5,7.5c-0.1,0-0.1,0.1-0.2,0.1c0,0,0,0,0-0.1S39.4,7.4,39.5,7.5z   M37.6,14.1c0.4,0.2,0.9,0.6,1.5,0.9c0,0,0,0,0.1,0v0.1c1.5,1,3.4,2.4,4.5,3.3c-0.1,0.2-0.3,0.3-0.4,0.5c-1.6,1.9-3.1,3.9-4.4,6  c-1.1,1.7-3.4,5.4-4.4,7.4c-0.1,0-0.2-0.1-0.4-0.1c-2.3-0.8-4.5-1.8-6.6-3c-1.3-0.7-2.5-1.5-3.7-2.4c0.8-2.2,1.9-4.3,3.3-6.2  c0-0.3,0.1-0.4,0.3-0.4c2.2-2.9,5.1-5.3,8.5-7.1C36.3,13.4,37,13.8,37.6,14.1z M40.5,29.6c0,0.1,0,0.2-0.1,0.4  c-0.2,0-0.3-0.1-0.4-0.2C40.2,29.5,40.3,29.5,40.5,29.6z M40.3,26.9c0,0.1,0,0.2,0,0.2C40.2,27,40.1,27,40.3,26.9z M40,25.7  C39.9,25.7,39.9,25.8,40,25.7C39.9,25.8,39.8,25.8,40,25.7C39.9,25.8,39.9,25.7,40,25.7C40,25.6,40,25.7,40,25.7z M38.3,27.9  C38.2,27.9,38.2,28,38.3,27.9h-0.2C38.1,27.8,38.2,27.8,38.3,27.9C38.2,27.8,38.3,27.9,38.3,27.9z M37.8,32.6c0-0.1-0.1-0.3-0.1-0.4  c0,0,0,0,0.1,0C37.8,32.3,37.9,32.5,37.8,32.6z M28.6,33.2L28.6,33.2c0.1-0.1,0.1-0.1,0.2-0.1v0.1C28.8,33.2,28.7,33.2,28.6,33.2z   M28.7,34.5c-0.1-0.1-0.1-0.3,0-0.4C28.8,34.3,28.8,34.4,28.7,34.5z M27.2,30.6c-0.1,0-0.1,0-0.2,0.1c0,0,0,0,0-0.1  C27,30.6,27.1,30.5,27.2,30.6C27.2,30.5,27.2,30.6,27.2,30.6z M26.6,34.6c0,0.1,0,0.2-0.2,0.2C26.5,34.7,26.5,34.6,26.6,34.6  L26.6,34.6z M25.2,32.7L25.2,32.7L25.2,32.7c0-0.1,0,0,0.1,0C25.3,32.7,25.3,32.7,25.2,32.7L25.2,32.7z M25.3,35.1L25.3,35.1  c-0.1,0-0.1,0-0.2,0l0,0C25.1,35,25.2,35.1,25.3,35.1z M25.2,30.4C25,30.2,25,30,25,29.8c0-0.1,0-0.2,0-0.3  c-0.1-0.2-0.1-0.2,0.1-0.4c0.1,0.3,0.2,0.7,0.3,1C25.3,30.2,25.3,30.3,25.2,30.4z M23.2,19.4c0-0.1,0.1-0.2,0.1-0.2  c0.1,0,0.2,0.1,0.4,0.2C23.5,19.6,23.5,19.6,23.2,19.4z M24.2,24.7c0.1,0.1,0.1,0.2,0.2,0.4C24.1,24.9,24.1,24.9,24.2,24.7z   M25.7,17.2L25.7,17.2c0.3,0,0.5,0.1,0.6,0.2c0.2,0.1,0.2,0.2,0.2,0.4c-0.1,0-0.2,0-0.2-0.1C26.1,17.6,26,17.5,25.7,17.2  C25.7,17.4,25.7,17.3,25.7,17.2z M27.2,14.8c0.1-0.2,0.2-0.4,0.3-0.5c0.2,0.1,0.4,0.1,0.6,0.3c0.2,0.2,0.2,0.5-0.1,0.6h-0.1  C27.7,15.1,27.4,14.9,27.2,14.8z M33.8,9.1c0,0.1,0,0.2-0.1,0.3c-0.1,0.1-0.2,0.1-0.3,0.1l0,0C33.5,9.4,33.7,9.3,33.8,9.1z   M29.7,15.1c-0.1-0.1-0.1-0.1-0.2-0.2C29.8,14.8,29.8,14.8,29.7,15.1z M28.9,8.2L28.9,8.2C29,8.3,29,8.3,28.9,8.2  C28.9,8.3,28.9,8.3,28.9,8.2C28.9,8.3,28.9,8.2,28.9,8.2z M28.2,8.9c-0.1,0.2-0.2,0.3-0.4,0.3C27.9,9,28,8.9,28.2,8.9z M25.9,3.2  c0.1,0,0.1,0,0.2,0h0.1c0.1,0.2,0.1,0.3,0,0.5c-0.1,0.1,0,0.2-0.1,0.3c-0.3,0-0.6-0.3-0.6-0.6C25.6,3.3,25.7,3.2,25.9,3.2z   M24.8,2.9c0,0,0.1,0,0.1,0.1c-0.1,0.1-0.1,0.1-0.2,0.1L24.6,3C24.7,2.9,24.7,2.9,24.8,2.9z M16.3,4.4c0.1,0,0.3-0.1,0.4,0.1  c0.1,0.1,0,0.2-0.1,0.2s-0.2,0.1-0.3,0C16.2,4.7,16.3,4.5,16.3,4.4z M11.2,3.1L11.2,3.1c0,0.1,0,0.1-0.1,0.1c0,0,0,0-0.1-0.1  C11.1,3.2,11.1,3.1,11.2,3.1z M11.4,4.9c0,0.2,0,0.3-0.1,0.5c-0.2,0-0.3-0.1-0.3-0.2C11,5,11.1,5,11.4,4.9z M9.2,8.4L9.2,8.4  c0-0.1,0-0.1,0.1-0.1C9.3,8.3,9.3,8.3,9.2,8.4C9.3,8.4,9.2,8.4,9.2,8.4z M11.8,24.6c-0.2-0.1-0.3-0.2-0.3-0.4  C11.8,24.3,11.9,24.4,11.8,24.6z M12,19.3c0.1-0.1,0.2-0.1,0.4-0.2C12.2,19.3,12.2,19.3,12,19.3z M12.7,24.9L12.7,24.9  c0-0.2-0.1-0.4-0.1-0.6c0,0,0,0,0.1,0C12.7,24.5,12.7,24.7,12.7,24.9z M16.9,28.3c0.1-0.1,0.1-0.1,0.2-0.1  C17,28.2,17,28.3,16.9,28.3z M13.7,16.6c-1.4-2.1-2.6-4.3-3.6-6.6L9.7,9L9.6,8.8l1.3-0.2c2.6-0.3,5.2-0.4,7.8-0.2  c2.9,0.2,5.7,0.6,8.5,1.4l1.8,0.5c-4.4,3.2-8,7.4-10.2,12.3C16.9,20.8,15.2,18.8,13.7,16.6z M20.4,20.4c-0.1,0-0.1,0-0.2,0.1l0,0  C20.2,20.4,20.3,20.3,20.4,20.4C20.4,20.3,20.4,20.4,20.4,20.4z M20.2,41.7l-0.1-0.1l0.1-0.1c0,0,0.1,0,0.1,0.1  C20.3,41.7,20.2,41.7,20.2,41.7z M21.5,21.8c-0.2,0-0.3,0.1-0.4,0.1C21.2,21.7,21.3,21.6,21.5,21.8z M21.2,38.8  c0.2-0.1,0.3-0.2,0.5-0.1C21.5,38.9,21.4,38.9,21.2,38.8z M22.5,51.9C22.5,51.8,22.5,51.8,22.5,51.9c0.1-0.1,0.1-0.1,0.2-0.1l0,0  C22.6,51.8,22.5,51.8,22.5,51.9z M23.5,53.8C23.4,53.9,23.4,53.9,23.5,53.8c-0.3-0.1-0.6-0.2-0.8-0.4c0.1-0.2,0.2-0.4,0.3-0.5  c0.2,0.1,0.4,0.1,0.6,0.3C23.8,53.4,23.8,53.7,23.5,53.8z M23.3,47.9c0.1-0.2,0.2-0.3,0.4-0.3C23.5,47.8,23.5,47.9,23.3,47.9z   M24.7,55.2L24.7,55.2C24.7,55.1,24.8,55.1,24.7,55.2C24.8,55.1,24.8,55.1,24.7,55.2C24.9,55.2,24.8,55.2,24.7,55.2z M25.2,53.7  c-0.1-0.1-0.1-0.1-0.2-0.2C25.2,53.5,25.3,53.5,25.2,53.7z M30.8,60c-0.1-0.1-0.2-0.1-0.1-0.2c0,0,0.1-0.1,0.1,0  C30.9,59.8,30.9,59.9,30.8,60z M33.2,60.2C33.1,60.2,33.1,60.2,33.2,60.2c0-0.1,0-0.1,0-0.2h0.1C33.2,60.1,33.2,60.1,33.2,60.2z   M34.6,53.7c0,0.1,0,0.3,0.1,0.4C34.4,53.9,34.4,53.9,34.6,53.7z M34.7,46.2L34.7,46.2c0-0.2,0.1-0.2,0.2-0.1  C34.8,46.2,34.8,46.2,34.7,46.2z M35.4,64.4C35.4,64.4,35.3,64.4,35.4,64.4C35.4,64.3,35.4,64.3,35.4,64.4  C35.4,64.3,35.5,64.3,35.4,64.4C35.4,64.4,35.4,64.4,35.4,64.4z M37.4,59.7C37.3,59.7,37.3,59.7,37.4,59.7L37.4,59.7  c0-0.1,0-0.2,0.1-0.2l0,0C37.4,59.6,37.4,59.6,37.4,59.7z M37.4,51.6c0-0.1,0-0.2,0-0.2c0.1,0,0.1,0,0.1,0S37.5,51.5,37.4,51.6z   M38.5,68.2c-0.1,0-0.2-0.1-0.3-0.1c0.1-0.1,0.3-0.1,0.6,0C38.7,68.2,38.6,68.2,38.5,68.2z M39.1,51.7c0-0.1,0-0.1,0-0.2  c0,0,0,0,0.1,0C39.1,51.6,39.1,51.6,39.1,51.7L39.1,51.7z M39.4,59.1c0.1-0.1,0.2-0.1,0.4-0.2C39.8,59.1,39.7,59.2,39.4,59.1z   M42.3,67.4c0-0.1-0.1-0.3-0.1-0.4c0,0,0,0,0.1,0C42.4,67.1,42.4,67.2,42.3,67.4z M45.5,77.5C45.5,77.5,45.5,77.4,45.5,77.5  C45.5,77.4,45.5,77.4,45.5,77.5C45.5,77.4,45.5,77.4,45.5,77.5C45.6,77.5,45.5,77.5,45.5,77.5z M46.5,74.8c-0.3-0.1-0.3-0.1-0.2-0.4  C46.5,74.5,46.6,74.6,46.5,74.8z M46.3,69.5C46.3,69.5,46.4,69.5,46.3,69.5C46.4,69.4,46.4,69.5,46.3,69.5c0.1,0,0.1,0.1,0,0.2  C46.4,69.6,46.3,69.6,46.3,69.5z M58.6,49.7c0-0.1,0-0.1,0-0.2c0,0,0,0,0.1,0C58.6,49.5,58.6,49.6,58.6,49.7  C58.6,49.6,58.6,49.6,58.6,49.7z M59,48.9c-0.2-0.2-0.2-0.2,0-0.4C59.2,48.7,59.2,48.7,59,48.9z M61.5,47.5  c-0.1-0.1-0.1-0.1-0.2-0.2c0,0,0,0,0.1-0.1C61.6,47.2,61.6,47.4,61.5,47.5C61.6,47.5,61.6,47.5,61.5,47.5z M63.3,48.4  C63.3,48.4,63.2,48.3,63.3,48.4c-0.1-0.1-0.1-0.1,0-0.2C63.3,48.3,63.3,48.3,63.3,48.4L63.3,48.4z M64.3,49.2  c-0.1,0.1-0.1,0.2-0.3,0.1c0-0.1,0.1-0.1,0.1-0.2h0.1C64.3,49.1,64.3,49.2,64.3,49.2z M68.2,54.8C68.2,54.7,68.2,54.7,68.2,54.8  C68.2,54.7,68.2,54.7,68.2,54.8L68.2,54.8C68.3,54.7,68.2,54.7,68.2,54.8z M69.4,50.7L69.4,50.7C69.4,50.6,69.5,50.6,69.4,50.7  L69.4,50.7C69.5,50.7,69.4,50.7,69.4,50.7z M73.6,51.9L73.6,51.9c0.1-0.2,0.1-0.2,0.2-0.1C73.8,51.9,73.7,51.9,73.6,51.9z   M73.9,46.5c0,0.1,0,0.2,0,0.4C73.6,46.7,73.6,46.6,73.9,46.5z M73.9,49.2L73.9,49.2c-0.1-0.1-0.1-0.1,0-0.2  C73.9,49,73.9,49.1,73.9,49.2C73.9,49.1,73.9,49.2,73.9,49.2z M74.1,44.5l-9.4,9c0.1-0.6,0.2-1.2,0.2-1.8c0.3-3.4,0.2-6.8-0.3-10.2  l-6.5,4.3c0.2,3.6-0.1,7.1-1,10.6l-0.5,1.8c-0.4,1.5-1,3-1.6,4.4l-2.9,2.7l0,0c0,0.1,0,0.1-0.1,0.2c0,0,0,0-0.1-0.1l-3.5,3.4  l-5.9-5.1c-0.8-1.8-1.5-3.7-2-5.6L40,56.3c-0.6-2.9-1.1-6-1.2-9.1l-6.7-4.1c-0.2,2.8-0.1,5.7,0.1,8.3c0.1,1.2,0.2,2.3,0.4,3.5  l-10.3-9.4V34.4c0-0.2,0-0.4,0-0.6c0.5,0.3,1,0.6,1.5,0.9c2.7,1.5,5.5,2.8,8.4,3.8c2.7,0.9,5.6,1.6,8.5,2.1c2.6,0.4,5.2,0.6,7.7,0.6  c2.2,0,7.2-0.6,9.4-0.9l0,0c1.9-0.3,10.5-1.8,16.3-5.9C74.1,34.4,74.1,44.5,74.1,44.5z M73.3,25.9c0.2-0.2,0.4-0.1,0.6-0.1  C73.7,25.9,73.5,25.9,73.3,25.9z M74.1,28.1L74.1,28.1L74.1,28.1C74.1,28,74.2,28,74.1,28.1C74.2,28.1,74.1,28.1,74.1,28.1z   M74.6,42.2c0.1,0,0.2,0,0.2,0.2C74.7,42.3,74.6,42.2,74.6,42.2z M74.5,20.2c-0.1,0.2-0.3,0.3-0.4,0.4c-0.1-0.1-0.2-0.1-0.3-0.2  c0.1-0.3,0.4-0.6,0.2-1c0.4,0,0.7,0,1.1,0C74.9,19.8,74.7,20,74.5,20.2z M75.3,47c0.1,0,0.3,0,0.4,0C75.6,47.2,75.5,47.2,75.3,47z   M75.8,31c0.2,0,0.4,0.1,0.6,0.2C76.1,31.4,76,31.3,75.8,31z M78.8,45.3c-0.1-0.1-0.1-0.1,0-0.3C78.9,45.1,78.9,45.2,78.8,45.3z   M78.9,36.3C78.9,36.2,78.8,36.2,78.9,36.3v-0.2V36.3C79,36.2,79,36.2,78.9,36.3z M79.7,22.8c0.1,0,0.3,0.1,0.3,0.3  C79.9,23.1,79.8,22.9,79.7,22.8z M80.9,24.7c0.1-0.2,0.1-0.2,0.3-0.2c0,0,0,0,0,0.1C81.2,24.6,81.1,24.6,80.9,24.7z M85.3,17.1  c-0.2-0.1-0.2-0.1,0-0.3C85.3,16.9,85.3,17,85.3,17.1z M85.1,15L85.1,15c0.1-0.1,0.2,0,0.2,0S85.3,15.1,85.1,15  C85.1,15.1,85.1,15.1,85.1,15z M87,15.4C87,15.4,86.9,15.4,87,15.4c-0.1-0.1-0.1-0.1-0.1-0.2H87C87,15.3,87,15.4,87,15.4z   M87.5,10.3c-0.1,0.2-0.1,0.2-0.2,0.2c-1,2.2-2.2,4.4-3.7,6.4c-1.7,2.4-3.6,4.5-5.8,6.5C75.9,19,73,15,69.2,11.9c0,0.1,0,0.1,0,0.2  c-0.1-0.1-0.2-0.2-0.1-0.3c-0.5-0.4-0.9-0.8-1.4-1.1c0.2-0.1,0.4-0.1,0.6-0.2l1.9-0.5c2.8-0.7,5.6-1.1,8.5-1.2  c2.6-0.1,5.2,0,7.8,0.3l1.1,0.1h0.2l-0.4,0.9C87.4,10.3,87.5,10.3,87.5,10.3z M88.1,16.2c-0.2-0.1-0.2-0.1,0-0.2  C88.1,16.1,88.1,16.1,88.1,16.2z M88.5,15.9C88.5,15.8,88.5,15.8,88.5,15.9c0-0.1,0-0.1,0-0.2C88.6,15.8,88.6,15.8,88.5,15.9  C88.6,15.8,88.6,15.8,88.5,15.9z M89.1,15.7L89.1,15.7c-0.1-0.1-0.1-0.1,0-0.2C89.1,15.5,89.1,15.6,89.1,15.7  C89.1,15.6,89.1,15.7,89.1,15.7z M89.6,11.6L89.6,11.6c-0.1-0.1-0.1-0.1-0.1-0.3C89.6,11.4,89.6,11.5,89.6,11.6z M89.8,4.2  c-0.1,0-0.1-0.1-0.2-0.1l0,0C89.5,4,89.5,4,89.4,3.9l0,0c0,0,0,0-0.1,0c0,0,0,0,0-0.1c0,0,0,0,0.1,0.1c0.1,0,0.1,0,0.2,0.1  c0,0,0.1,0.1,0,0.1C89.7,4.1,89.8,4.1,89.8,4.2L89.8,4.2z M92.6,10.4C92.6,10.3,92.6,10.3,92.6,10.4C92.6,10.3,92.6,10.2,92.6,10.4  C92.7,10.3,92.6,10.3,92.6,10.4z M94.4,6.5C94.3,6.5,94.3,6.5,94.4,6.5c-0.1-0.1,0-0.2,0-0.2h0.1C94.4,6.3,94.4,6.4,94.4,6.5z"/>
<g>
	<g>
		<path class="st0" d="M129,25.9h-20c-0.9,0-1.6,0.7-1.6,1.6v4.9c0,0.9,0.7,1.6,1.6,1.6h5.7v23.2c0,0.9,0.7,1.6,1.6,1.6h5.4    c0.9,0,1.6-0.7,1.6-1.6V34h5.7c0.9,0,1.6-0.7,1.6-1.6v-4.9C130.7,26.6,129.9,25.9,129,25.9z"/>
		<path class="st0" d="M165.1,25.9h-18.6c-0.9,0-1.6,0.7-1.6,1.6v29.7c0,0.9,0.7,1.6,1.6,1.6h18.6c0.9,0,1.6-0.7,1.6-1.6v-4.9    c0-0.9-0.7-1.6-1.6-1.6h-11.7v-4.5h9.5c0.9,0,1.6-0.7,1.6-1.6v-4.9c0-0.9-0.7-1.6-1.6-1.6h-9.5V34h11.7c0.9,0,1.6-0.7,1.6-1.6    v-4.9C166.7,26.6,166,25.9,165.1,25.9z"/>
		<path class="st0" d="M289.2,50.8h-9.9V27.5c0-0.9-0.7-1.6-1.6-1.6h-5.3c-0.9,0-1.6,0.7-1.6,1.6v29.7c0,0.9,0.7,1.6,1.6,1.6h16.9    c0.9,0,1.6-0.7,1.6-1.6v-4.9C290.8,51.5,290.1,50.8,289.2,50.8z"/>
		<path class="st0" d="M324.2,34c0.9,0,1.6-0.7,1.6-1.6v-4.9c0-0.9-0.7-1.6-1.6-1.6h-17.6c-0.9,0-1.6,0.7-1.6,1.6v29.7    c0,0.9,0.7,1.6,1.6,1.6h17.6c0.9,0,1.6-0.7,1.6-1.6v-4.9c0-0.9-0.7-1.6-1.6-1.6h-10.7v-4.5h9.5c0.9,0,1.6-0.7,1.6-1.6v-4.9    c0-0.9-0.7-1.6-1.6-1.6h-9.5V34H324.2z"/>
		<path class="st0" d="M246.8,26.4h-13.4c-0.7,0-1.2,0.5-1.2,1.2v30c0,0.7,0.5,1.2,1.2,1.2h6c0.6,0,1.2-0.6,1.2-1.2v-6.1h6.3    c6.6,0,11.5-5.5,11.5-12.7C258.4,31.8,253.4,26.4,246.8,26.4z M250,39c0,2.5-1.7,4.5-3.9,4.5h-4.8v-8.7h4.8    C248.3,34.8,250,36.7,250,39z"/>
		<path class="st0" d="M214.1,25.9h-0.5c-0.4,0-0.7,0.1-0.9,0.4l-14,15.1l-14.2-15.1c-0.2-0.3-0.6-0.4-0.9-0.4h-0.5    c-0.7,0-1.3,0.6-1.3,1.3v30.5c0,0.7,0.6,1.3,1.3,1.3h6c0.7,0,1.3-0.6,1.3-1.3v-11c0-0.4,0-0.8,0-1.2c0.3,0.4,0.6,0.7,0.9,1    l6.1,6.8c0.2,0.3,0.6,0.4,0.9,0.4h0.6c0.4,0,0.7-0.2,0.9-0.4l6.1-6.8c0.3-0.3,0.6-0.7,0.9-1c0,0.4,0,0.9,0,1.2v11    c0,0.7,0.6,1.3,1.3,1.3h6.1c0.7,0,1.3-0.6,1.3-1.3V27.2C215.4,26.5,214.8,25.9,214.1,25.9z"/>
	</g>
</g>
</svg>